<svg width="82" height="215" viewBox="0 0 82 215" fill="none" xmlns="http://www.w3.org/2000/svg">
<mask id="path-1-outside-1_50_331" maskUnits="userSpaceOnUse" x="-10" y="-10" width="102" height="235" fill="black">
<rect fill="white" x="-10" y="-10" width="102" height="235"/>
<path d="M81.7871 0.546875V215H54.6875V34.3848L0.0488281 54.3066V29.8438L77.5391 0.546875H81.7871Z"/>
</mask>
<path d="M81.7871 0.546875V215H54.6875V34.3848L0.0488281 54.3066V29.8438L77.5391 0.546875H81.7871Z" fill="#EBEBEB"/>
<path d="M81.7871 0.546875H91.7871V-9.45312H81.7871V0.546875ZM81.7871 215V225H91.7871V215H81.7871ZM54.6875 215H44.6875V225H54.6875V215ZM54.6875 34.3848H64.6875V20.0947L51.262 24.9898L54.6875 34.3848ZM0.0488281 54.3066H-9.95117V68.5967L3.47435 63.7016L0.0488281 54.3066ZM0.0488281 29.8438L-3.48759 20.4899L-9.95117 22.9336V29.8438H0.0488281ZM77.5391 0.546875V-9.45312H75.7118L74.0026 -8.80694L77.5391 0.546875ZM71.7871 0.546875V215H91.7871V0.546875H71.7871ZM81.7871 205H54.6875V225H81.7871V205ZM64.6875 215V34.3848H44.6875V215H64.6875ZM51.262 24.9898L-3.37669 44.9117L3.47435 63.7016L58.113 43.7798L51.262 24.9898ZM10.0488 54.3066V29.8438H-9.95117V54.3066H10.0488ZM3.58524 39.1976L81.0755 9.90069L74.0026 -8.80694L-3.48759 20.4899L3.58524 39.1976ZM77.5391 10.5469H81.7871V-9.45312H77.5391V10.5469Z" fill="#EBEBEB" mask="url(#path-1-outside-1_50_331)"/>
</svg>
