<svg width="145" height="217" viewBox="0 0 145 217" fill="none" xmlns="http://www.w3.org/2000/svg">
<mask id="path-1-outside-1_50_332" maskUnits="userSpaceOnUse" x="-10" y="-10" width="165" height="237" fill="black">
<rect fill="white" x="-10" y="-10" width="165" height="237"/>
<path d="M144.471 194.734V217H4.87109V197.518L74.7441 119.734C83.3379 110.164 89.9785 102.059 94.666 95.418C99.4512 88.6797 102.771 82.6738 104.627 77.4004C106.58 72.0293 107.557 66.5605 107.557 60.9941C107.557 53.9629 106.092 47.6152 103.162 41.9512C100.33 36.1895 96.1309 31.5996 90.5645 28.1816C84.998 24.7637 78.2598 23.0547 70.3496 23.0547C60.877 23.0547 52.9668 24.9102 46.6191 28.6211C40.3691 32.2344 35.6816 37.3125 32.5566 43.8555C29.4316 50.3984 27.8691 57.918 27.8691 66.4141H0.769531C0.769531 54.4023 3.40625 43.416 8.67969 33.4551C13.9531 23.4941 21.7656 15.584 32.1172 9.72461C42.4688 3.76758 55.2129 0.789062 70.3496 0.789062C83.8262 0.789062 95.3496 3.18164 104.92 7.9668C114.49 12.6543 121.814 19.2949 126.893 27.8887C132.068 36.3848 134.656 46.3457 134.656 57.7715C134.656 64.0215 133.582 70.3691 131.434 76.8145C129.383 83.1621 126.502 89.5098 122.791 95.8574C119.178 102.205 114.93 108.455 110.047 114.607C105.262 120.76 100.135 126.814 94.666 132.771L37.5371 194.734H144.471Z"/>
</mask>
<path d="M144.471 194.734V217H4.87109V197.518L74.7441 119.734C83.3379 110.164 89.9785 102.059 94.666 95.418C99.4512 88.6797 102.771 82.6738 104.627 77.4004C106.58 72.0293 107.557 66.5605 107.557 60.9941C107.557 53.9629 106.092 47.6152 103.162 41.9512C100.33 36.1895 96.1309 31.5996 90.5645 28.1816C84.998 24.7637 78.2598 23.0547 70.3496 23.0547C60.877 23.0547 52.9668 24.9102 46.6191 28.6211C40.3691 32.2344 35.6816 37.3125 32.5566 43.8555C29.4316 50.3984 27.8691 57.918 27.8691 66.4141H0.769531C0.769531 54.4023 3.40625 43.416 8.67969 33.4551C13.9531 23.4941 21.7656 15.584 32.1172 9.72461C42.4688 3.76758 55.2129 0.789062 70.3496 0.789062C83.8262 0.789062 95.3496 3.18164 104.92 7.9668C114.49 12.6543 121.814 19.2949 126.893 27.8887C132.068 36.3848 134.656 46.3457 134.656 57.7715C134.656 64.0215 133.582 70.3691 131.434 76.8145C129.383 83.1621 126.502 89.5098 122.791 95.8574C119.178 102.205 114.93 108.455 110.047 114.607C105.262 120.76 100.135 126.814 94.666 132.771L37.5371 194.734H144.471Z" fill="#EBEBEB"/>
<path d="M144.471 194.734H154.471V184.734H144.471V194.734ZM144.471 217V227H154.471V217H144.471ZM4.87109 217H-5.12891V227H4.87109V217ZM4.87109 197.518L-2.56811 190.835L-5.12891 193.686V197.518H4.87109ZM74.7441 119.734L82.1833 126.417L82.1846 126.416L74.7441 119.734ZM94.666 95.418L86.5127 89.628L86.5045 89.6395L86.4963 89.6511L94.666 95.418ZM104.627 77.4004L95.229 73.983L95.2112 74.0321L95.1938 74.0813L104.627 77.4004ZM103.162 41.9512L94.1876 46.3624L94.2328 46.4544L94.2799 46.5454L103.162 41.9512ZM46.6191 28.6211L51.6242 37.2784L51.6452 37.2663L51.6661 37.2541L46.6191 28.6211ZM27.8691 66.4141V76.4141H37.8691V66.4141H27.8691ZM0.769531 66.4141H-9.23047V76.4141H0.769531V66.4141ZM32.1172 9.72461L37.0432 18.4272L37.0741 18.4097L37.105 18.3919L32.1172 9.72461ZM104.92 7.9668L100.448 16.9111L100.484 16.9294L100.521 16.9474L104.92 7.9668ZM126.893 27.8887L118.283 32.976L118.318 33.0338L118.352 33.0913L126.893 27.8887ZM131.434 76.8145L121.947 73.6522L121.932 73.6961L121.918 73.7402L131.434 76.8145ZM122.791 95.8574L114.158 90.8105L114.129 90.8603L114.1 90.9104L122.791 95.8574ZM110.047 114.607L102.214 108.391L102.183 108.429L102.153 108.468L110.047 114.607ZM94.666 132.771L102.018 139.55L102.025 139.542L102.033 139.534L94.666 132.771ZM37.5371 194.734L30.1851 187.956L14.7156 204.734H37.5371V194.734ZM134.471 194.734V217H154.471V194.734H134.471ZM144.471 207H4.87109V227H144.471V207ZM14.8711 217V197.518H-5.12891V217H14.8711ZM12.3103 204.2L82.1833 126.417L67.3049 113.052L-2.56811 190.835L12.3103 204.2ZM82.1846 126.416C90.9079 116.701 97.8329 108.272 102.836 101.185L86.4963 89.6511C82.1241 95.8451 75.7679 103.627 67.3036 113.053L82.1846 126.416ZM102.819 101.208C107.912 94.036 111.786 87.1833 114.06 80.7195L95.1938 74.0813C93.7572 78.1644 90.9899 83.3233 86.5127 89.628L102.819 101.208ZM114.025 80.8178C116.366 74.3811 117.557 67.7573 117.557 60.9941H97.5566C97.5566 65.3638 96.7947 69.6775 95.229 73.983L114.025 80.8178ZM117.557 60.9941C117.557 52.5311 115.782 44.5822 112.044 37.3569L94.2799 46.5454C96.4021 50.6482 97.5566 55.3947 97.5566 60.9941H117.557ZM112.137 37.54C108.456 30.051 102.944 24.0487 95.7971 19.6599L85.3318 36.7034C89.3172 39.1505 92.2046 42.3279 94.1876 46.3624L112.137 37.54ZM95.7971 19.6599C88.3535 15.0893 79.7158 13.0547 70.3496 13.0547V33.0547C76.8037 33.0547 81.6426 34.438 85.3318 36.7034L95.7971 19.6599ZM70.3496 13.0547C59.604 13.0547 49.8323 15.1592 41.5722 19.9881L51.6661 37.2541C56.1013 34.6612 62.1499 33.0547 70.3496 33.0547V13.0547ZM41.6141 19.9637C33.6083 24.5921 27.5239 31.1897 23.533 39.5457L41.5803 48.1653C43.8393 43.4353 47.13 39.8766 51.6242 37.2784L41.6141 19.9637ZM23.533 39.5457C19.6639 47.6467 17.8691 56.6811 17.8691 66.4141H37.8691C37.8691 59.1549 39.1994 53.1502 41.5803 48.1653L23.533 39.5457ZM27.8691 56.4141H0.769531V76.4141H27.8691V56.4141ZM10.7695 66.4141C10.7695 55.9231 13.0573 46.5589 17.5176 38.134L-0.158192 28.7762C-6.24478 40.2731 -9.23047 52.8816 -9.23047 66.4141H10.7695ZM17.5176 38.134C21.8473 29.9555 28.2564 23.4008 37.0432 18.4272L27.1912 1.02204C15.2748 7.76715 6.05893 17.0328 -0.158192 28.7762L17.5176 38.134ZM37.105 18.3919C45.5847 13.512 56.5032 10.7891 70.3496 10.7891V-9.21094C53.9226 -9.21094 39.3528 -5.97689 27.1294 1.05731L37.105 18.3919ZM70.3496 10.7891C82.6663 10.7891 92.5791 12.9767 100.448 16.9111L109.392 -0.977475C98.1202 -6.61342 84.986 -9.21094 70.3496 -9.21094V10.7891ZM100.521 16.9474C108.462 20.8369 114.267 26.1785 118.283 32.976L135.502 22.8014C129.362 12.4113 120.518 4.47167 109.319 -1.01383L100.521 16.9474ZM118.352 33.0913C122.439 39.7986 124.656 47.9032 124.656 57.7715H144.656C144.656 44.7882 141.698 32.971 135.433 22.6861L118.352 33.0913ZM124.656 57.7715C124.656 62.8572 123.785 68.138 121.947 73.6522L140.92 79.9767C143.379 72.6003 144.656 65.1858 144.656 57.7715H124.656ZM121.918 73.7402C120.11 79.3345 117.541 85.0238 114.158 90.8105L131.424 100.904C135.463 93.9957 138.655 86.9898 140.949 79.8888L121.918 73.7402ZM114.1 90.9104C110.758 96.7817 106.802 102.609 102.214 108.391L117.88 120.824C123.057 114.301 127.597 107.628 131.482 100.804L114.1 90.9104ZM102.153 108.468C97.5414 114.398 92.591 120.245 87.2995 126.009L102.033 139.534C107.679 133.384 112.982 127.122 117.94 120.747L102.153 108.468ZM87.314 125.993L30.1851 187.956L44.8891 201.513L102.018 139.55L87.314 125.993ZM37.5371 204.734H144.471V184.734H37.5371V204.734Z" fill="#EBEBEB" mask="url(#path-1-outside-1_50_332)"/>
</svg>
