<svg width="137" height="220" viewBox="0 0 137 220" fill="none" xmlns="http://www.w3.org/2000/svg">
<mask id="path-1-outside-1_50_333" maskUnits="userSpaceOnUse" x="-10" y="-10" width="157" height="240" fill="black">
<rect fill="white" x="-10" y="-10" width="157" height="240"/>
<path d="M44.2754 97.0293H63.6113C73.084 97.0293 80.8965 95.4668 87.0488 92.3418C93.2988 89.1191 97.9375 84.7734 100.965 79.3047C104.09 73.7383 105.652 67.4883 105.652 60.5547C105.652 52.3516 104.285 45.4668 101.551 39.9004C98.8164 34.334 94.7148 30.1348 89.2461 27.3027C83.7773 24.4707 76.8438 23.0547 68.4453 23.0547C60.8281 23.0547 54.0898 24.5684 48.2305 27.5957C42.4688 30.5254 37.9277 34.7246 34.6074 40.1934C31.3848 45.6621 29.7734 52.1074 29.7734 59.5293H2.67383C2.67383 48.6895 5.4082 38.8262 10.877 29.9395C16.3457 21.0527 24.0117 13.9727 33.875 8.69922C43.8359 3.42578 55.3594 0.789062 68.4453 0.789062C81.3359 0.789062 92.6152 3.08398 102.283 7.67383C111.951 12.166 119.471 18.9043 124.842 27.8887C130.213 36.7754 132.898 47.8594 132.898 61.1406C132.898 66.5117 131.629 72.2734 129.09 78.4258C126.648 84.4805 122.791 90.1445 117.518 95.418C112.342 100.691 105.604 105.037 97.3027 108.455C89.002 111.775 79.041 113.436 67.4199 113.436H44.2754V97.0293ZM44.2754 119.295V103.035H67.4199C80.9941 103.035 92.2246 104.646 101.111 107.869C109.998 111.092 116.98 115.389 122.059 120.76C127.234 126.131 130.848 132.039 132.898 138.484C135.047 144.832 136.121 151.18 136.121 157.527C136.121 167.488 134.412 176.326 130.994 184.041C127.674 191.756 122.938 198.299 116.785 203.67C110.73 209.041 103.602 213.094 95.3984 215.828C87.1953 218.562 78.2598 219.93 68.5918 219.93C59.3145 219.93 50.5742 218.611 42.3711 215.975C34.2656 213.338 27.0879 209.529 20.8379 204.549C14.5879 199.471 9.70508 193.27 6.18945 185.945C2.67383 178.523 0.916016 170.076 0.916016 160.604H28.0156C28.0156 168.025 29.627 174.52 32.8496 180.086C36.1699 185.652 40.8574 189.998 46.9121 193.123C53.0645 196.15 60.291 197.664 68.5918 197.664C76.8926 197.664 84.0215 196.248 89.9785 193.416C96.0332 190.486 100.672 186.092 103.895 180.232C107.215 174.373 108.875 167 108.875 158.113C108.875 149.227 107.02 141.951 103.309 136.287C99.5977 130.525 94.3242 126.277 87.4883 123.543C80.75 120.711 72.791 119.295 63.6113 119.295H44.2754Z"/>
</mask>
<path d="M44.2754 97.0293H63.6113C73.084 97.0293 80.8965 95.4668 87.0488 92.3418C93.2988 89.1191 97.9375 84.7734 100.965 79.3047C104.09 73.7383 105.652 67.4883 105.652 60.5547C105.652 52.3516 104.285 45.4668 101.551 39.9004C98.8164 34.334 94.7148 30.1348 89.2461 27.3027C83.7773 24.4707 76.8438 23.0547 68.4453 23.0547C60.8281 23.0547 54.0898 24.5684 48.2305 27.5957C42.4688 30.5254 37.9277 34.7246 34.6074 40.1934C31.3848 45.6621 29.7734 52.1074 29.7734 59.5293H2.67383C2.67383 48.6895 5.4082 38.8262 10.877 29.9395C16.3457 21.0527 24.0117 13.9727 33.875 8.69922C43.8359 3.42578 55.3594 0.789062 68.4453 0.789062C81.3359 0.789062 92.6152 3.08398 102.283 7.67383C111.951 12.166 119.471 18.9043 124.842 27.8887C130.213 36.7754 132.898 47.8594 132.898 61.1406C132.898 66.5117 131.629 72.2734 129.09 78.4258C126.648 84.4805 122.791 90.1445 117.518 95.418C112.342 100.691 105.604 105.037 97.3027 108.455C89.002 111.775 79.041 113.436 67.4199 113.436H44.2754V97.0293ZM44.2754 119.295V103.035H67.4199C80.9941 103.035 92.2246 104.646 101.111 107.869C109.998 111.092 116.98 115.389 122.059 120.76C127.234 126.131 130.848 132.039 132.898 138.484C135.047 144.832 136.121 151.18 136.121 157.527C136.121 167.488 134.412 176.326 130.994 184.041C127.674 191.756 122.938 198.299 116.785 203.67C110.73 209.041 103.602 213.094 95.3984 215.828C87.1953 218.562 78.2598 219.93 68.5918 219.93C59.3145 219.93 50.5742 218.611 42.3711 215.975C34.2656 213.338 27.0879 209.529 20.8379 204.549C14.5879 199.471 9.70508 193.27 6.18945 185.945C2.67383 178.523 0.916016 170.076 0.916016 160.604H28.0156C28.0156 168.025 29.627 174.52 32.8496 180.086C36.1699 185.652 40.8574 189.998 46.9121 193.123C53.0645 196.15 60.291 197.664 68.5918 197.664C76.8926 197.664 84.0215 196.248 89.9785 193.416C96.0332 190.486 100.672 186.092 103.895 180.232C107.215 174.373 108.875 167 108.875 158.113C108.875 149.227 107.02 141.951 103.309 136.287C99.5977 130.525 94.3242 126.277 87.4883 123.543C80.75 120.711 72.791 119.295 63.6113 119.295H44.2754Z" fill="#EBEBEB"/>
<path d="M44.2754 97.0293V87.0293H34.2754V97.0293H44.2754ZM87.0488 92.3418L91.5775 101.258L91.6046 101.244L91.6317 101.23L87.0488 92.3418ZM100.965 79.3047L92.245 74.4093L92.2304 74.4354L92.2159 74.4615L100.965 79.3047ZM48.2305 27.5957L52.7629 36.5096L52.7918 36.4949L52.8207 36.48L48.2305 27.5957ZM34.6074 40.1934L26.0595 35.0036L26.0254 35.0598L25.992 35.1164L34.6074 40.1934ZM29.7734 59.5293V69.5293H39.7734V59.5293H29.7734ZM2.67383 59.5293H-7.32617V69.5293H2.67383V59.5293ZM33.875 8.69922L29.1961 -0.13866L29.1781 -0.129103L29.1601 -0.119472L33.875 8.69922ZM102.283 7.67383L97.9945 16.7075L98.0319 16.7252L98.0694 16.7427L102.283 7.67383ZM124.842 27.8887L116.259 33.0199L116.271 33.0406L116.284 33.0613L124.842 27.8887ZM129.09 78.4258L119.846 74.6109L119.831 74.6484L119.815 74.6861L129.09 78.4258ZM117.518 95.418L110.447 88.3469L110.413 88.3799L110.381 88.4133L117.518 95.418ZM97.3027 108.455L101.017 117.74L101.064 117.721L101.11 117.702L97.3027 108.455ZM44.2754 113.436H34.2754V123.436H44.2754V113.436ZM44.2754 119.295H34.2754V129.295H44.2754V119.295ZM44.2754 103.035V93.0352H34.2754V103.035H44.2754ZM122.059 120.76L114.792 127.63L114.825 127.664L114.858 127.699L122.059 120.76ZM132.898 138.484L123.369 141.516L123.397 141.604L123.426 141.69L132.898 138.484ZM130.994 184.041L121.851 179.99L121.83 180.039L121.809 180.088L130.994 184.041ZM116.785 203.67L110.209 196.137L110.179 196.163L110.149 196.189L116.785 203.67ZM42.3711 215.975L39.2776 225.484L39.2943 225.49L39.311 225.495L42.3711 215.975ZM20.8379 204.549L14.532 212.31L14.5688 212.34L14.6059 212.369L20.8379 204.549ZM6.18945 185.945L-2.84793 190.226L-2.83691 190.249L-2.82578 190.273L6.18945 185.945ZM0.916016 160.604V150.604H-9.08398V160.604H0.916016ZM28.0156 160.604H38.0156V150.604H28.0156V160.604ZM32.8496 180.086L24.1953 185.096L24.228 185.153L24.2614 185.209L32.8496 180.086ZM46.9121 193.123L42.3257 202.009L42.4109 202.053L42.497 202.096L46.9121 193.123ZM89.9785 193.416L94.2721 202.447L94.3032 202.433L94.3341 202.418L89.9785 193.416ZM103.895 180.232L95.1943 175.302L95.163 175.358L95.1324 175.413L103.895 180.232ZM103.309 136.287L94.9014 141.702L94.9226 141.735L94.944 141.767L103.309 136.287ZM87.4883 123.543L83.6137 132.762L83.6937 132.795L83.7744 132.828L87.4883 123.543ZM44.2754 107.029H63.6113V87.0293H44.2754V107.029ZM63.6113 107.029C74.1021 107.029 83.5986 105.31 91.5775 101.258L82.5202 83.426C78.1944 85.6232 72.0659 87.0293 63.6113 87.0293V107.029ZM91.6317 101.23C99.4125 97.2179 105.612 91.5583 109.714 84.1479L92.2159 74.4615C90.2635 77.9885 87.1852 81.0204 82.4659 83.4538L91.6317 101.23ZM109.685 84.2C113.72 77.0115 115.652 69.0509 115.652 60.5547H95.6523C95.6523 65.9256 94.4593 70.4651 92.245 74.4093L109.685 84.2ZM115.652 60.5547C115.652 51.2952 114.116 42.7987 110.526 35.4914L92.5752 44.3094C94.4544 48.1349 95.6523 53.4079 95.6523 60.5547H115.652ZM110.526 35.4914C106.856 28.0194 101.227 22.246 93.8446 18.4228L84.6476 36.1827C88.2023 38.0235 90.7769 40.6486 92.5752 44.3094L110.526 35.4914ZM93.8446 18.4228C86.5335 14.6366 77.8907 13.0547 68.4453 13.0547V33.0547C75.7968 33.0547 81.0212 34.3048 84.6476 36.1827L93.8446 18.4228ZM68.4453 13.0547C59.4793 13.0547 51.124 14.8448 43.6403 18.7114L52.8207 36.48C57.0557 34.2919 62.1769 33.0547 68.4453 33.0547V13.0547ZM43.698 18.6819C36.2955 22.4459 30.3562 27.9267 26.0595 35.0036L43.1553 45.3831C45.4993 41.5225 48.642 38.6049 52.7629 36.5096L43.698 18.6819ZM25.992 35.1164C21.7194 42.3669 19.7734 50.6273 19.7734 59.5293H39.7734C39.7734 53.5875 41.0501 48.9573 43.2228 45.2703L25.992 35.1164ZM29.7734 49.5293H2.67383V69.5293H29.7734V49.5293ZM12.6738 59.5293C12.6738 50.4646 14.9335 42.428 19.3935 35.1804L2.36037 24.6985C-4.11705 35.2243 -7.32617 46.9143 -7.32617 59.5293H12.6738ZM19.3935 35.1804C23.8675 27.9103 30.1721 22.0186 38.5899 17.5179L29.1601 -0.119472C17.8514 5.92676 8.82392 14.1952 2.36037 24.6985L19.3935 35.1804ZM38.5539 17.5371C46.857 13.1413 56.7267 10.7891 68.4453 10.7891V-9.21094C53.9921 -9.21094 40.8149 -6.28978 29.1961 -0.13866L38.5539 17.5371ZM68.4453 10.7891C80.1512 10.7891 89.9128 12.8707 97.9945 16.7075L106.572 -1.35983C95.3177 -6.70273 82.5206 -9.21094 68.4453 -9.21094V10.7891ZM98.0694 16.7427C105.955 20.4066 111.936 25.7899 116.259 33.0199L133.425 22.7574C127.005 12.0187 117.947 3.92541 106.497 -1.39501L98.0694 16.7427ZM116.284 33.0613C120.482 40.0082 122.898 49.1818 122.898 61.1406H142.898C142.898 46.537 139.944 33.5426 133.4 22.7161L116.284 33.0613ZM122.898 61.1406C122.898 64.9305 122.001 69.3882 119.846 74.6109L138.334 82.2407C141.256 75.1586 142.898 68.093 142.898 61.1406H122.898ZM119.815 74.6861C117.944 79.3282 114.904 83.8898 110.447 88.3469L124.589 102.489C130.678 96.3992 135.353 89.6327 138.364 82.1655L119.815 74.6861ZM110.381 88.4133C106.332 92.5384 100.808 96.197 93.4952 99.2083L101.11 117.702C110.399 113.877 118.352 108.844 124.654 102.423L110.381 88.4133ZM93.5888 99.1703C86.7651 101.9 78.1319 103.436 67.4199 103.436V123.436C79.9501 123.436 91.2388 121.651 101.017 117.74L93.5888 99.1703ZM67.4199 103.436H44.2754V123.436H67.4199V103.436ZM54.2754 113.436V97.0293H34.2754V113.436H54.2754ZM54.2754 119.295V103.035H34.2754V119.295H54.2754ZM44.2754 113.035H67.4199V93.0352H44.2754V113.035ZM67.4199 113.035C80.2952 113.035 90.2726 114.576 97.7022 117.27L104.52 98.4682C94.1766 94.7171 81.6931 93.0352 67.4199 93.0352V113.035ZM97.7022 117.27C105.52 120.105 111.041 123.663 114.792 127.63L129.325 113.89C122.92 107.115 114.476 102.079 104.52 98.4682L97.7022 117.27ZM114.858 127.699C119.079 132.079 121.83 136.68 123.369 141.516L142.428 135.452C139.865 127.398 135.39 120.183 129.259 113.821L114.858 127.699ZM123.426 141.69C125.245 147.063 126.121 152.329 126.121 157.527H146.121C146.121 150.03 144.849 142.601 142.371 135.278L123.426 141.69ZM126.121 157.527C126.121 166.342 124.611 173.76 121.851 179.99L140.137 188.092C144.213 178.892 146.121 168.635 146.121 157.527H126.121ZM121.809 180.088C119.062 186.47 115.202 191.777 110.209 196.137L123.362 211.203C130.673 204.82 136.286 197.042 140.18 187.994L121.809 180.088ZM110.149 196.189C105.173 200.604 99.2465 204.005 92.2362 206.341L98.5607 225.315C107.957 222.183 116.288 217.478 123.421 211.151L110.149 196.189ZM92.2362 206.341C85.1654 208.698 77.3106 209.93 68.5918 209.93V229.93C79.209 229.93 89.2252 228.427 98.5607 225.315L92.2362 206.341ZM68.5918 209.93C60.2736 209.93 52.5724 208.75 45.4312 206.454L39.311 225.495C48.5761 228.473 58.3553 229.93 68.5918 229.93V209.93ZM45.4645 206.465C38.4216 204.174 32.3225 200.914 27.0699 196.728L14.6059 212.369C21.8533 218.145 30.1096 222.502 39.2776 225.484L45.4645 206.465ZM27.1438 196.788C22.0497 192.649 18.0875 187.624 15.2047 181.618L-2.82578 190.273C1.32264 198.915 7.12608 206.293 14.532 212.31L27.1438 196.788ZM15.2268 181.664C12.4354 175.771 10.916 168.822 10.916 160.604H-9.08398C-9.08398 171.33 -7.08778 181.275 -2.84793 190.226L15.2268 181.664ZM0.916016 170.604H28.0156V150.604H0.916016V170.604ZM18.0156 160.604C18.0156 169.51 19.9632 177.786 24.1953 185.096L41.5039 175.076C39.2907 171.253 38.0156 166.54 38.0156 160.604H18.0156ZM24.2614 185.209C28.5882 192.462 34.7009 198.074 42.3257 202.009L51.4985 184.237C47.0139 181.922 43.7516 178.842 41.4378 174.963L24.2614 185.209ZM42.497 202.096C50.2823 205.926 59.0779 207.664 68.5918 207.664V187.664C61.5041 187.664 55.8466 186.374 51.3272 184.15L42.497 202.096ZM68.5918 207.664C78.005 207.664 86.6732 206.06 94.2721 202.447L85.6849 184.385C81.3698 186.436 75.7802 187.664 68.5918 187.664V207.664ZM94.3341 202.418C102.244 198.59 108.428 192.74 112.657 185.052L95.1324 175.413C92.9155 179.444 89.8223 182.382 85.6229 184.414L94.3341 202.418ZM112.595 185.163C116.997 177.394 118.875 168.193 118.875 158.113H98.875C98.875 165.807 97.4329 171.352 95.1943 175.302L112.595 185.163ZM118.875 158.113C118.875 147.878 116.738 138.537 111.673 130.807L94.944 141.767C97.3015 145.366 98.875 150.575 98.875 158.113H118.875ZM111.716 130.872C106.795 123.232 99.8152 117.703 91.2022 114.258L83.7744 132.828C88.8332 134.851 92.4002 137.818 94.9014 141.702L111.716 130.872ZM91.3629 114.324C83.1275 110.863 73.793 109.295 63.6113 109.295V129.295C71.789 129.295 78.3725 130.559 83.6137 132.762L91.3629 114.324ZM63.6113 109.295H44.2754V129.295H63.6113V109.295Z" fill="#EBEBEB" mask="url(#path-1-outside-1_50_333)"/>
</svg>
